<?xml version="1.0" standalone="no"?>
<!DOCTYPE svg PUBLIC "-//W3C//DTD SVG 1.1//EN" "http://www.w3.org/Graphics/SVG/1.1/DTD/svg11.dtd" >
<svg xmlns="http://www.w3.org/2000/svg">
<metadata>Generated by IcoMoon</metadata>
<defs>
<font id="bzone" horiz-adv-x="1024">
<font-face units-per-em="1024" ascent="960" descent="-64" />
<missing-glyph horiz-adv-x="1024" />
<glyph unicode="&#x20;" horiz-adv-x="512" d="" />
<glyph unicode="&#xe900;" glyph-name="book" horiz-adv-x="908" d="M454.254-21.016c-225.489 0-408.935 183.143-408.935 408.284s183.445 408.305 408.935 408.305c225.469 0 408.935-183.163 408.935-408.305s-183.466-408.284-408.935-408.284zM798.906 678.874l21.053 21.005 22.967-22.931 30.436 30.394-76.389 76.272-30.436-30.394 22.982-22.947-18.847-19.966c-77.661 75.581-184.061 123.548-296.918 127.891v75.704h107.728v46.098h-261.624v-46.098h107.728v-76.098c-235.975-13.43-425.724-210.366-425.724-450.536 0-248.816 202.969-451.268 452.19-451.268s452.088 202.452 452.088 451.268c0 111.080-40.326 212.896-107.23 291.606zM485.605 634.455h-41.39v-256.1h186.255v39.4h-144.865z" />
<glyph unicode="&#xe901;" glyph-name="calendar" horiz-adv-x="1103" d="M1024.115 684.308h-945.231v27.687c0 60.948 45.292 110.159 106.22 110.159h110.395v-78.769h78.769v78.769h354.462v-78.769h78.769v78.769h114.314c60.928 0 102.302-49.211 102.302-110.159v-27.687zM1024.115 122.644c0-60.948-41.374-107.874-102.302-107.874h-736.709c-60.928 0-106.22 46.927-106.22 107.874v482.895h945.231v-482.895zM918.702 900.923h-111.202v59.077h-78.769v-59.077h-354.462v59.077h-78.769v-59.077h-111.202c-101.73 0-184.182-82.452-184.182-184.182v-596.559c0-101.73 82.452-184.182 184.182-184.182h734.405c101.73 0 184.182 82.452 184.182 184.182v596.559c0 101.73-82.452 184.182-184.182 184.182v0z" />
<glyph unicode="&#xe902;" glyph-name="check" horiz-adv-x="1347" d="M505.832 312.090l-317.335 317.335-178.578-178.578 507.64-507.64 0.483 0.483 0.241-0.241 818.798 818.798-190.547 190.547z" />
<glyph unicode="&#xe903;" glyph-name="clock" d="M512 891.733c-244.668 0-443.733-199.066-443.733-443.733s199.066-443.733 443.733-443.733c244.668 0 443.733 199.066 443.733 443.733s-199.066 443.733-443.733 443.733zM512-64c-282.351 0-512 229.649-512 512s229.649 512 512 512c282.351 0 512-229.649 512-512s-229.649-512-512-512zM648.533 235.964c-8.738 0-17.476 3.345-24.166 9.967l-146.5 146.569v287.198c0 18.842 15.292 34.133 34.133 34.133s34.133-15.292 34.133-34.133v-258.935l126.566-126.498c13.312-13.38 13.312-34.953 0-48.333-6.69-6.622-15.428-9.967-24.166-9.967z" />
<glyph unicode="&#xe904;" glyph-name="close" horiz-adv-x="1117" d="M991.046 955.577l-432.5-432.593-432.593 432.593-65.815-65.815 432.593-432.5-451.025-451.025 65.815-65.815 451.025 450.932 451.025-450.932 65.722 65.815-450.932 451.025 432.5 432.5z" />
<glyph unicode="&#xe905;" glyph-name="facebook" d="M465.682 218.003v213.106h-72.363v76.629h72.363v56.206c0 0-5.234 116.793 100.466 116.793h85.504v-78.052h-53.305c0 0-39.196 1.991-39.595-36.693v-58.254h86.187l-12.459-76.629h-74.581v-215.836h-92.217v2.731zM375.467 891.732c-169.415 0-307.2-137.785-307.2-307.2v-273.067c0-169.358 137.785-307.2 307.2-307.2h273.067c169.358 0 307.2 137.842 307.2 307.2v273.067c0 169.415-137.842 307.2-307.2 307.2h-273.067zM648.534-64.001h-273.067c-207.019 0-375.467 168.448-375.467 375.467v273.067c0 207.019 168.448 375.467 375.467 375.467h273.067c207.019 0 375.467-168.448 375.467-375.467v-273.067c0-207.019-168.448-375.467-375.467-375.467v0z" />
<glyph unicode="&#xe906;" glyph-name="hair-spray" horiz-adv-x="831" d="M-0.123 589.189l54.11-578.259h270.529l36.772 578.259h-361.412zM66.032 530.828h231.055l-29.086-456.231h-159.172l-42.798 456.231zM487.899 2.983h284.233v407.455h-284.233v58.974h284.233v183.387c0 67.198-55.441 122.204-122.66 122.204h-41.359c-67.218 0-120.214-55.006-120.214-122.204v-649.816zM691.689 830.815c80.443-18.303 139.435-91.023 139.435-178.015v-714.152h-407.579v714.152c0 86.992 64.355 159.712 144.798 178.015v125.77l123.346 0.767v-54.899l107.258 54.519v-121.668l-107.258 54.519v-59.006zM123.223 624.889h117.983v150.115h-117.983z" />
<glyph unicode="&#xe907;" glyph-name="instagram" d="M379.307 891.221c-169.415 0-307.2-137.785-307.2-307.2v-272.043c0-169.415 137.785-307.2 307.2-307.2h265.387c169.358 0 307.143 137.785 307.143 307.2v272.043c0 169.415-137.785 307.2-307.143 307.2h-265.387zM644.693-63.488h-265.387c-207.019 0-375.467 168.448-375.467 375.467v272.043c0 207.019 168.448 375.467 375.467 375.467h265.387c207.019 0 375.467-168.448 375.467-375.467v-272.043c0-207.019-168.448-375.467-375.467-375.467v0zM515.834 635.221c-103.481 0-187.733-84.196-187.733-187.733 0-103.481 84.252-187.733 187.733-187.733s187.733 84.252 187.733 187.733c0 103.538-84.252 187.733-187.733 187.733zM515.834 191.488c-141.141 0-256 114.859-256 256 0 141.198 114.859 256 256 256s256-114.802 256-256c0-141.141-114.859-256-256-256zM685.249 732.49c0-31.403 25.429-56.889 56.889-56.889 31.403 0 56.889 25.486 56.889 56.889 0 31.46-25.486 56.889-56.889 56.889-31.46 0-56.889-25.429-56.889-56.889z" />
<glyph unicode="&#xe908;" glyph-name="next" horiz-adv-x="2048" d="M1530.551 941.827l-65.106-67.149 381.902-383.881h-1822.94v-94.266h1822.94l-381.902-378.791 65.106-63.566 493.041 493.795z" />
<glyph unicode="&#xe909;" glyph-name="calendar-day" horiz-adv-x="964" d="M781.985 37.535h-599.996c-56.825 0-103.059 46.234-103.059 103.072v410.492h806.14v-410.492c0-56.838-46.247-103.072-103.085-103.072zM181.989 793.677h40.146v-54.501c0-18.237 14.791-33.015 33.015-33.015 18.237 0 33.015 14.777 33.015 33.015v54.501h395.054v-54.501c0-18.237 14.791-33.015 33.015-33.015 18.237 0 33.015 14.777 33.015 33.015v54.501h32.737c56.838 0 103.085-46.247 103.085-103.072v-73.478h-806.14v73.478c0 56.825 46.234 103.072 103.059 103.072zM781.985 859.707h-32.737v31.773c0 18.237-14.777 33.015-33.015 33.015-18.224 0-33.015-14.777-33.015-33.015v-31.773h-395.054v31.773c0 18.237-14.777 33.015-33.015 33.015-18.224 0-33.015-14.777-33.015-33.015v-31.773h-40.146c-93.234 0-169.088-75.855-169.088-169.101v-549.999c0-93.247 75.855-169.101 169.088-169.101h599.996c93.26 0 169.115 75.855 169.115 169.101v549.999c0 93.247-75.855 169.101-169.115 169.101zM827.613 457.879h-109.728c-18.224 0-33.015-14.777-33.015-33.015s14.791-33.015 33.015-33.015h109.728c18.237 0 33.015 14.777 33.015 33.015s-14.777 33.015-33.015 33.015zM640.098 457.879h-111.801c-18.237 0-33.015-14.777-33.015-33.015s14.777-33.015 33.015-33.015h111.801c18.237 0 33.015 14.777 33.015 33.015s-14.777 33.015-33.015 33.015zM349.595 391.85h102.306c18.237 0 33.015 14.777 33.015 33.015s-14.777 33.015-33.015 33.015h-102.306c-18.237 0-33.015-14.777-33.015-33.015s14.777-33.015 33.015-33.015zM639.751 325.943h-109.714c-18.224 0-33.015-14.777-33.015-33.015s14.791-33.015 33.015-33.015h109.714c18.237 0 33.015 14.777 33.015 33.015s-14.777 33.015-33.015 33.015zM452.25 325.943h-111.801c-18.237 0-33.015-14.777-33.015-33.015s14.777-33.015 33.015-33.015h111.801c18.237 0 33.015 14.777 33.015 33.015s-14.777 33.015-33.015 33.015zM264.041 325.943h-102.306c-18.237 0-33.015-14.777-33.015-33.015s14.777-33.015 33.015-33.015h102.306c18.237 0 33.015 14.777 33.015 33.015s-14.777 33.015-33.015 33.015zM635.354 196.786h-109.714c-18.224 0-33.015-14.777-33.015-33.015s14.791-33.015 33.015-33.015h109.714c18.237 0 33.015 14.777 33.015 33.015s-14.777 33.015-33.015 33.015zM447.853 196.786h-111.801c-18.237 0-33.015-14.777-33.015-33.015s14.777-33.015 33.015-33.015h111.801c18.237 0 33.015 14.777 33.015 33.015s-14.777 33.015-33.015 33.015zM259.644 196.786h-102.306c-18.237 0-33.015-14.777-33.015-33.015s14.777-33.015 33.015-33.015h102.306c18.237 0 33.015 14.777 33.015 33.015s-14.777 33.015-33.015 33.015z" />
<glyph unicode="&#xe90a;" glyph-name="location" horiz-adv-x="796" d="M498.571 590.387c0-56.576-45.006-102.4-100.571-102.4s-100.571 45.824-100.571 102.4c0 56.576 45.006 102.4 100.571 102.4s100.571-45.824 100.571-102.4zM398 89.6c0 0-266.027 358.4-266.027 512 0 141.158 119.34 256 266.027 256s266.027-114.842 266.027-256c0-153.6-266.027-512-266.027-512zM398 960c-205.692 0-372.437-160.461-372.437-358.4s372.437-665.6 372.437-665.6c0 0 372.437 467.661 372.437 665.6s-166.746 358.4-372.437 358.4z" />
<glyph unicode="&#xe90b;" glyph-name="oval" horiz-adv-x="973" d="M486.5-40.273c-268.403 0-486.505 219.282-486.505 488.47s218.102 488.077 486.505 488.077 486.505-218.889 486.505-488.47c0-268.796-218.102-488.077-486.505-488.077zM486.5 877.327c-235.786 0-427.559-192.558-427.559-429.524 0-236.572 191.772-429.131 427.559-429.131s427.559 192.558 427.559 429.524c0 236.572-191.772 429.131-427.559 429.131z" />
<glyph unicode="&#xe90c;" glyph-name="star" d="M498.824 175.025l-248.269-175.288c-11.55-8.155-27.523-5.402-35.678 6.148-4.586 6.495-5.893 14.752-3.539 22.345l89.989 290.285c3.208 10.35-0.446 21.598-9.125 28.085l-243.428 181.951c-11.325 8.465-13.643 24.507-5.178 35.832 4.76 6.368 12.208 10.163 20.158 10.271l303.885 4.118c10.834 0.147 20.403 7.099 23.891 17.358l97.822 287.739c4.551 13.386 19.092 20.548 32.478 15.998 7.527-2.559 13.439-8.47 15.998-15.998l97.822-287.739c3.488-10.259 13.056-17.211 23.891-17.358l303.885-4.118c14.137-0.192 25.442-11.807 25.251-25.945-0.108-7.95-3.903-15.398-10.271-20.158l-243.428-181.951c-8.679-6.487-12.334-17.736-9.125-28.085l89.989-290.285c4.186-13.504-3.367-27.846-16.872-32.032-7.594-2.354-15.851-1.046-22.345 3.539l-248.269 175.288c-8.852 6.25-20.679 6.25-29.531 0z" />
<glyph unicode="&#xe90d;" glyph-name="email" horiz-adv-x="1396" d="M1349.636 145.454c0-50.223-23.319-94.627-59.159-124.509l-413.649 413.649c-0.372 0.326-0.745 0.559-1.117 0.884l426.636 426.636c0.465 0.465 0.791 1.024 1.257 1.489 28.346-29.37 46.033-69.12 46.033-113.059v-605.091zM46.363 145.454v605.091c0 34.63 11.078 66.653 29.556 93.091l439.436-439.389c0.326-0.372 0.745-0.559 1.071-0.931l-394.799-394.752c-45.103 28.998-75.264 79.36-75.264 136.89v0zM588.478 408.11c60.463 54.132 147.409 61.766 215.599 22.993-58.694-52.457-147.735-59.997-215.599-22.993v0zM1218.192-14.29h-1011.712c-12.521 0-24.948 1.676-36.911 4.98l383.302 383.255c37.469-24.529 81.175-37.888 127.023-37.888 61.393 0 118.97 23.785 162.723 66.653 0.419-0.372 0.884-0.652 1.303-1.024l406.249-406.249c-10.147-4.329-20.899-7.54-31.977-9.728v0zM1186.727 913.454c28.998 0 55.901-8.239 79.5-21.597l-426.915-426.961c-89.553 58.415-210.618 48.687-289.792-28.812-0.372 0.419-0.884 0.652-1.257 1.071l-440.134 440.087c27.881 22.295 62.743 36.212 101.143 36.212h977.455zM1333.206 899.862l0.093 0.14-21.551 18.479c-2.467 1.815-4.748 3.305-7.168 5.027-0.512 0.326-0.977 0.698-1.489 1.024-28.113 19.968-53.527 35.468-89.274 35.468h-1024c-50.129 0-92.393-24.017-126.929-60.044-0.745-0.745-1.489-1.35-2.234-2.048-0.233-0.279-0.559-0.512-0.838-0.791l-13.452-15.081 0.465-0.931c-28.951-35.933-47.011-80.943-47.011-130.56v-605.091c0-115.479 93.975-209.455 209.455-209.455h977.455c10.799 0 21.132 1.583 31.465 3.165h3.398c28.067 0 54.272 15.5 79.22 27.415l23.226 20.806-0.652 0.652c44.218 38.4 72.797 94.348 72.797 157.417v605.091c0 58.461-24.204 111.29-62.976 149.318v0z" />
<glyph unicode="&#xe90e;" glyph-name="prev-2" horiz-adv-x="622" d="M520.188-63.726l93.294 93.294-418.377 418.414 418.377 418.414-93.294 93.33-511.671-511.744z" />
<glyph unicode="&#xe90f;" glyph-name="up-2" horiz-adv-x="1022" d="M1022.726 238.811l-93.294-93.294-418.414 418.377-418.414-418.377-93.33 93.294 511.744 511.671z" />
<glyph unicode="&#xe910;" glyph-name="down-2" d="M1023.726 657.188l-93.294 93.294-418.414-418.377-418.414 418.377-93.33-93.294 511.744-511.671z" />
<glyph unicode="&#xe911;" glyph-name="prev-23" horiz-adv-x="622" d="M520.188-63.726l93.294 93.294-418.377 418.414 418.377 418.414-93.294 93.33-511.671-511.744z" />
<glyph unicode="&#xe912;" glyph-name="fax" horiz-adv-x="853" d="M346.218 670.959h350.208v34.133h-350.208zM346.218 606.925h350.208v34.133h-350.208zM286.792 258.15v59.733h437.419v-59.733h-437.419zM252.693 224.017h505.685v128h-505.685v-128zM819.033 51.2c0-9.387-7.68-17.067-17.067-17.067h-592.93c-9.387 0-17.067 7.68-17.067 17.067v345.6c0 9.387 7.68 17.067 17.067 17.067h592.93c9.387 0 17.067-7.68 17.067-17.067v-345.6zM286.792 450.116v475.75h437.419v-475.75h-437.419zM123.703 14.985c0-24.713-20.105-44.851-44.851-44.851s-44.885 20.139-44.885 44.851v386.014c0 24.747 20.139 44.885 44.885 44.885s44.851-20.139 44.851-44.885v-386.014zM801.966 448h-43.588v512h-505.719v-512h-43.622c-28.228 0-51.2-22.972-51.2-51.2v4.198c0 43.554-35.43 79.019-78.985 79.019s-79.019-35.465-79.019-79.019v-386.014c0-43.554 35.465-78.985 79.019-78.985s78.985 35.43 78.985 78.985v36.215c0-28.228 22.972-51.2 51.2-51.2h592.93c28.228 0 51.2 22.972 51.2 51.2v345.6c0 28.228-22.972 51.2-51.2 51.2v0z" />
<glyph unicode="&#xe913;" glyph-name="global" d="M863.993 131.736h-161.754c45.511 85.182 71.377 180.148 74.449 279.021h207.227c-8.344-106.875-52.262-203.7-119.922-279.021v0zM590.623-19.058c34.551 34.399 64.891 72.173 90.377 112.868h144.877c-65.043-57.761-145.863-97.811-235.255-112.868v0zM528.538-25.354c-3.831-0.114-7.585-0.531-11.454-0.569-1.631 0-3.224-0.076-4.817-0.076-5.803 0-11.454 0.683-17.218 0.872-41.225 35.006-76.345 75.321-106.155 118.936h246.139c-29.924-43.691-65.119-84.082-106.496-119.163v0zM198.317 93.81h144.574c25.372-40.581 55.637-78.279 90.074-112.64-89.164 15.132-169.719 55.068-234.648 112.64v0zM40.090 410.757h207.227c3.034-98.873 28.9-193.839 74.335-279.021h-161.451c-67.736 75.321-111.73 172.108-120.111 279.021v0zM158.115 762.937h182.841c-57.572-93.563-90.871-201.5-94.132-314.254h-208.593c0.152 120.604 45.473 230.552 119.884 314.254v0zM366.935 800.863h-171.539c75.852 68.077 173.966 112.147 282.776 119.884-42.705-35.157-79.531-75.814-111.237-119.884v0zM512.116 899.736c37.054-29.203 69.784-62.578 98.456-98.873h-196.987c28.71 36.295 61.478 69.708 98.532 98.873v0zM828.418 800.863h-171.198c-31.63 43.956-68.305 84.537-110.857 119.618 108.506-7.813 206.355-51.731 282.055-119.618v0zM738.761 410.757c-3.262-99.442-30.682-194.863-79.379-279.021h-294.836c-48.659 84.158-76.079 179.617-79.303 279.021h453.518zM284.75 448.682c3.489 113.664 39.443 222.094 101.186 314.254h252.283c61.705-92.16 97.583-200.59 101.073-314.254h-454.542zM985.773 448.682h-208.593c-3.224 112.754-36.485 220.653-94.018 314.254h182.575c74.487-83.665 119.846-193.65 120.036-314.254v0zM536.426 959.317l-6.334 0.303-5.234-3.565c-4.361-2.958-8.457-6.182-12.705-9.216-4.361 3.11-8.571 6.372-12.971 9.406l-5.272 3.565-6.334-0.303c-273.256-12.971-487.31-237.644-487.31-511.431 0-271.55 212.651-493.758 480.066-510.369 0 0 35.537-1.517 37.623-1.517 6.068 0.076 25.259 1.289 25.259 1.289 267.643 16.384 480.521 238.706 480.521 510.407 0 273.787-214.092 498.46-487.31 511.431v0z" />
<glyph unicode="&#xe914;" glyph-name="phone" d="M395.297 514.423c3.482 8.738 6.861 16.964 10.206 24.61l0.341 0.819c2.867 7.68 6.042 15.804 9.591 24.371 82.671 201.933 154.965 240.060 202.65 240.060 19.115 0 34.27-6.11 44.544-10.274 13.961-5.632 82.398-37.444 55.979-112.162-13.687-38.98-30.447-87.518-131.482-80.009-23.142 1.946-43.281-23.586-68.71-87.484l-3.516-10.103c-0.171-0.444-0.375-0.887-0.58-1.331l-4.983-12.322c-0.41-1.092-0.785-2.15-1.126-3.14l-4.164-8.738c-26.146-63.59-29.423-95.642-11.366-110.626 77.619-64.649 56.218-111.343 37.751-151.62-31.71-69.359-102.98-44.715-116.941-39.083-35.942 14.507-131.413 53.077-18.193 337.033zM511.999 959.999c-282.317 0-512-229.683-512-512 0-193.229 106.974-368.026 279.177-456.124l15.531 30.413c-160.7 82.227-260.574 245.35-260.574 425.711 0 263.509 214.391 477.867 477.867 477.867 263.509 0 477.867-214.357 477.867-477.867 0-225.86-160.29-422.741-381.201-468.105-31.573-6.485-64.102-9.762-96.666-9.762-52.087 0-91.511 14.985-105.404 40.073-14.268 25.668-7.339 74.274 32.222 126.532 5.939-0.751 11.674-1.877 17.92-1.877 38.571 0 81.306 16.077 105.984 70.144 17.306 37.717 49.493 107.964-46.797 187.563-0.512 1.297-4.233 13.995 18.125 69.359 2.253 3.209 4.096 8.124 7.305 16.794l4.267 10.547c3.413 7.817 5.427 12.459 6.042 16.247 22.426 55.398 33.86 61.986 32.939 62.293 127.147-9.523 152.439 63.556 167.185 105.506 29.662 83.9-34.031 135.236-76.356 152.371-111.206 44.817-203.844-34.099-291.567-248.525-3.618-8.704-6.861-17.033-9.83-24.917-3.413-7.851-6.895-16.247-10.445-25.19-85.845-215.279-74.035-336.418 37.103-381.303 0.887-0.341 2.082-0.546 3.004-0.887-38.673-62.771-47.821-113.698-26.965-151.245 28.877-51.985 104.243-57.617 135.27-57.617 34.85 0 69.7 3.516 103.526 10.479 236.681 48.606 408.474 259.516 408.474 501.521 0 282.317-229.683 512-512 512z" />
<glyph unicode="&#xe915;" glyph-name="air-conditioner" horiz-adv-x="1023" d="M511.5-63.505c-282.139 0-511.505 229.365-511.505 511.505s229.365 511.505 511.505 511.505 511.505-229.365 511.505-511.505-229.365-511.505-511.505-511.505zM511.5 910.79c-255.346 0-462.79-207.443-462.79-462.79s207.443-462.79 462.79-462.79c255.346 0 462.79 207.443 462.79 462.79s-207.85 462.79-462.79 462.79zM828.145 368.432l-10.555 39.377-129.906-34.506-35.319 20.703 137.619 62.517-130.718 56.022 30.040 17.456 126.658-34.101 10.555 39.377-87.687 23.546 71.042 41.002-20.298 35.319-72.666-42.22 24.357 90.528-39.377 10.555-34.912-129.906-32.476-19.080 14.614 149.798-116.916-87.28v36.13l92.964 92.964-28.823 28.823-64.141-64.141v82.003h-40.595v-84.033l-66.171 66.171-28.823-28.823 94.994-94.994v-34.912l-119.351 85.251 17.456-147.362-34.506 19.892-34.101 126.658-38.972-10.555 23.546-87.687-71.042 41.002-20.298-35.319 72.666-41.813-90.528-24.357 10.555-39.377 129.906 34.912 31.258-17.862-131.529-59.676 135.995-58.051-36.536-21.11-126.658 34.506-10.555-39.377 87.687-23.951-71.854-41.002 20.298-35.319 72.666 41.813-24.357-90.528 39.377-10.555 35.319 129.5 33.694 19.486-14.209-144.114 115.291 86.469v-40.595l-92.964-92.558 28.417-28.823 64.547 64.141v-82.003h40.595v84.033l66.171-66.577 28.823 28.417-94.588 95.399v41.813l120.569-86.469-16.645 140.461 32.071-18.674 33.694-127.064 39.377 10.555-23.139 87.687 71.042-41.002 20.298 35.319-72.666 42.22 89.716 23.951zM617.048 422.425v63.735l72.26-30.853-72.26-32.883zM591.473 521.884l-59.676 34.101 67.795 50.745-8.119-84.845zM511.5 372.898l-64.953 36.942v73.884l64.953 36.942 64.953-36.942v-73.884l-64.953-36.942zM491.608 556.39l-58.051-33.288-9.743 82.003 67.795-48.714zM405.951 482.506v-60.487l-68.606 29.229 68.606 31.258zM433.962 370.462l49.527-28.417-56.428-42.22 6.901 70.636zM543.57 344.481l50.745 29.229 8.525-71.449-59.269 42.22z" />
<glyph unicode="&#xe916;" glyph-name="note" d="M779.378 898.076h-145.771v-29.542h145.771c11.182-0.002 20.28-9.098 20.28-20.282 0-3.252-0.748-6.356-2.224-9.224l26.27-13.51c3.594 6.988 5.494 14.85 5.494 22.734 0.002 27.474-22.348 49.824-49.82 49.824zM554.291 898.074h36.702v-29.542h-36.702v29.542zM183.39 633.731h521.914v-29.542h-521.914v29.542zM183.39 95.235h521.914v-29.542h-521.914v29.542zM878.84 624.157l-20.89-20.888 18.368-18.37-60.658-60.658 20.888-20.89 81.548 81.548zM777.501 486.064l19.677 19.677 20.888-20.888-19.677-19.677-20.888 20.888zM1000.151 710.735l-10.928 10.928c-31.746 31.748-83.408 31.748-115.156 0l-85.716-85.714v112.434c51.108 4.558 91.316 47.594 91.316 99.868 0 55.3-44.992 100.292-100.29 100.292h-679.087c-55.298 0-100.29-44.99-100.29-100.29v-798.513h85.52v-102.282h702.835v436.322l211.795 211.797c15.38 15.38 23.85 35.826 23.85 57.576s-8.466 42.204-23.848 57.582zM171.3 919.002h608.078c39.012 0 70.748-31.738 70.748-70.75s-31.738-70.748-70.748-70.748h-608.078c18.084 18.15 29.282 43.166 29.282 70.748 0 27.586-11.196 52.6-29.282 70.75zM85.519 777.505v0-698.223h-55.978v768.971c0 39.012 31.74 70.75 70.75 70.75s70.748-31.74 70.748-70.75c0-39.012-31.74-70.748-70.748-70.748h-14.772zM758.814-23v0h-643.755v770.961h643.753v-141.553l-64.044-64.042h-511.384v-29.542h481.846l-61.83-61.83h-420.016v-29.542h390.476l-61.828-61.828h-328.647v-29.542h299.107l-5.154-5.154-16.802-56.676h-277.151v-29.542h268.395l-18.33-61.83h-250.065v-29.542h521.908v29.542h-175.955l74.084 21.96 39.866 39.866h62.002v29.542h-32.46l85.984 85.984v-377.231zM497.537 289.143l70.094-70.094-99.626-29.534 29.532 99.628zM595.625 232.831l-84.306 84.306 352.065 352.065 84.306-84.306-352.065-352.065zM979.265 616.469l-10.682-10.682-84.306 84.306 10.682 10.682c20.23 20.23 53.146 20.23 73.378 0l10.928-10.928c9.8-9.8 15.198-22.83 15.198-36.688-0.002-13.86-5.4-26.89-15.198-36.69z" />
<glyph unicode="&#xe917;" glyph-name="phone2" d="M768 960h-512c-53.056 0-96-42.976-96-96v-832c0-53.056 42.976-96 96-96h512c52.992 0 96 43.008 96 96v832c0 53.056-43.008 96-96 96zM800 32c0-17.632-14.368-32-32-32h-512c-17.664 0-32 14.304-32 32v64.128h576v-64.128zM800 128.128h-576v639.872h576v-639.872zM800 800h-576v64c0 17.664 14.336 32 32 32h512c17.632 0 32-14.336 32-32v-64zM576 848c0-8.832-7.2-16-16-16h-96c-8.864 0-16 7.168-16 16v0c0 8.864 7.136 16 16 16h96c8.8 0 16-7.136 16-16v0zM544 48.128c0-8.8-7.2-16-16-16h-32c-8.832 0-16 7.2-16 16v0c0 8.864 7.168 16 16 16h32c8.8 0 16-7.136 16-16v0z" />
<glyph unicode="&#xe918;" glyph-name="like" d="M933.248 624.896c-40 10.496-134.048 10.368-271.616 14.016 6.496 30.016 8 57.088 8 105.152 0 114.816-83.648 215.936-157.632 215.936-52.256 0-95.328-42.72-96-95.264-0.704-64.448-20.64-175.744-128-232.192-7.872-4.16-30.4-15.264-33.696-16.704l1.696-1.44c-16.8 14.496-40.096 25.6-64 25.6h-96c-52.928 0-96-43.072-96-96v-512c0-52.928 43.072-96 96-96h96c38.080 0 69.952 23.008 85.376 55.264 0.384-0.128 1.056-0.32 1.504-0.384 2.112-0.576 4.608-1.184 7.648-1.984 0.576-0.16 0.864-0.224 1.472-0.384 18.432-4.576 53.92-13.056 129.76-30.496 16.256-3.712 102.144-22.016 191.104-22.016h174.944c53.312 0 91.744 20.512 114.624 61.696 0.32 0.64 7.68 15.008 13.696 34.432 4.512 14.624 6.176 35.328 0.736 56.32 34.368 23.616 45.44 59.328 52.64 82.56 12.064 38.112 8.448 66.752 0.064 87.264 19.328 18.24 35.808 46.048 42.752 88.512 4.32 26.304-0.32 53.376-12.448 75.904 18.112 20.352 26.368 45.952 27.328 69.632l0.384 6.688c0.224 4.192 0.416 6.784 0.416 16 0 40.416-28 91.968-90.752 109.888zM224 32c0-17.696-14.304-32-32-32h-96c-17.696 0-32 14.304-32 32v512c0 17.696 14.304 32 32 32h96c17.696 0 32-14.304 32-32v-512zM959.264 494.88c-0.64-15.808-7.264-46.88-63.264-46.88-48 0-64 0-64 0-8.864 0-16-7.168-16-16s7.136-16 16-16c0 0 14.016 0 62.016 0s54.304-39.808 51.2-59.008c-3.968-23.872-15.168-68.992-69.216-68.992-53.984 0-76 0-76 0-8.864 0-16-7.136-16-16 0-8.8 7.136-16 16-16 0 0 38.016 0 63.008 0 54.016 0 49.248-41.184 41.504-65.76-10.208-32.288-16.448-62.24-84.512-62.24-23.008 0-52.192 0-52.192 0-8.864 0-16-7.136-16-16 0-8.8 7.136-16 16-16 0 0 22.176 0 50.176 0 35.008 0 36.64-33.12 32.992-44.992-4-12.992-8.736-22.624-8.928-23.072-9.664-17.44-25.248-27.936-58.24-27.936h-174.944c-87.872 0-175.040 19.936-177.28 20.448-132.928 30.624-139.936 32.992-148.288 35.36 0 0-27.072 4.576-27.072 28.192l-0.224 441.984c0 15.008 9.568 28.576 25.408 33.344 1.984 0.768 4.672 1.6 6.592 2.4 146.176 60.544 190.688 193.28 192 302.272 0.192 15.328 12 32 32 32 33.824 0 93.632-67.904 93.632-151.936 0-75.872-3.072-88.992-29.632-168.064 320 0 317.76-4.608 345.984-12 35.008-10.016 38.016-39.008 38.016-48.992 0-10.976-0.32-9.376-0.736-20.128zM144 128c-26.496 0-48-21.504-48-48s21.504-48 48-48 48 21.504 48 48-21.504 48-48 48zM144 64c-8.8 0-16 7.2-16 16s7.2 16 16 16 16-7.2 16-16-7.2-16-16-16z" />
<glyph unicode="&#xe919;" glyph-name="information-button" d="M511.998-63.999c-136.76 0-265.335 53.259-362.037 149.963-96.704 96.704-149.961 225.277-149.961 362.039s53.256 265.33 149.961 362.035 225.277 149.961 362.037 149.961 265.335-53.256 362.039-149.961c96.704-96.702 149.963-225.277 149.963-362.037s-53.259-265.332-149.963-362.039c-96.704-96.702-225.279-149.961-362.039-149.961zM511.998 916.251c-125.075 0-242.662-48.707-331.103-137.147s-137.147-206.030-137.147-331.101c0-125.075 48.707-242.662 137.147-331.105 88.441-88.441 206.028-137.147 331.103-137.147s242.662 48.709 331.105 137.147c88.441 88.443 137.147 206.028 137.147 331.105 0 125.075-48.709 242.662-137.147 331.103-88.443 88.438-206.028 137.145-331.105 137.145zM452.227 555.59h95.635v-382.537h-95.635v382.537zM452.227 699.039h95.635v-95.635h-95.635v95.635z" />
<glyph unicode="&#xe91a;" glyph-name="profile-user" horiz-adv-x="851" d="M425.5 20.78c-234.747 0-425.501 191.442-425.501 427.22 0 235.435 190.753 427.22 425.501 427.22s425.501-191.442 425.501-427.22c0-235.435-190.753-427.22-425.501-427.22zM425.5 823.322c-206.22 0-373.946-168.413-373.946-375.665 0-206.908 167.726-375.321 373.946-375.321s373.946 168.413 373.946 375.665c0 206.908-167.726 375.321-373.946 375.321zM428.592 450.062c-77.677 0-140.918 63.241-140.918 140.918s63.241 140.918 140.918 140.918 140.918-63.241 140.918-140.918c0-77.677-63.241-140.918-140.918-140.918zM428.592 690.652c-54.992 0-99.673-44.681-99.673-99.673s44.681-99.673 99.673-99.673 99.673 44.681 99.673 99.673-44.681 99.673-99.673 99.673zM426.874 166.51v0c-74.239 0.344-145.73 30.589-191.784 81.113-26.122 28.871-9.28 80.082-6.53 87.643 10.998 34.37 40.9 63.584 82.144 80.082l0.344 0.344c1.031 0.344 24.059 8.592 48.806 8.592h134.731c24.746 0 47.774-8.248 48.806-8.592l0.344-0.344c41.244-16.498 70.802-45.712 82.144-80.426 2.749-7.561 19.592-58.773-6.53-87.643-46.056-50.181-117.89-80.77-192.473-80.77zM325.482 377.198c-29.558-11.686-50.524-31.621-57.742-54.304l-0.344-0.687c-5.156-14.091-8.592-38.838-1.718-46.399 38.495-42.275 98.985-67.709 161.883-67.709v0c62.897 0 123.044 25.433 161.195 67.366 6.53 7.217 3.437 31.965-1.718 46.399l-0.344 0.687c-7.217 23.028-28.184 42.618-57.742 54.649-1.718 0.687-18.216 6.187-34.37 6.187h-134.731c-16.154 0-32.652-5.499-34.37-6.187z" />
<glyph unicode="&#xe91b;" glyph-name="clockwise-rotation" horiz-adv-x="1023" d="M374.546 334.376h-178.143v35.304l83.999 89.68c11.362 12.579 19.884 23.536 25.565 32.87s8.116 18.26 8.116 26.782c0 11.362-2.841 20.695-8.927 27.189-5.681 6.492-14.203 9.739-25.159 9.739-11.768 0-20.695-4.059-27.594-12.174s-10.145-18.667-10.145-31.652h-50.725c0 15.825 3.652 30.435 11.362 43.42s18.26 23.13 32.058 30.841c13.797 7.305 29.623 10.957 47.073 10.957 26.782 0 47.478-6.492 62.492-19.073 14.608-12.986 22.319-30.841 22.319-54.376 0-12.986-3.246-25.971-10.145-39.362-6.492-13.392-18.26-28.811-34.087-46.666l-59.652-61.681h111.593v-41.797zM558.371 432.173h29.623v-41.392h-29.623v-56h-51.536v56h-106.318l-2.435 32.463 108.347 170.84h51.941v-161.912zM449.618 432.173h57.623v91.709l-3.246-6.087-54.376-85.623zM667.936 506.433c13.797 16.232 30.841 24.754 51.536 24.754 41.797 0 62.898-24.348 63.709-73.043v-123.767h-51.536v122.55c0 10.957-2.435 19.478-7.305 24.754s-12.579 8.116-23.536 8.116c-15.014 0-25.971-5.681-32.87-17.449v-137.564h-51.536v273.911h51.536v-102.26zM1023.005 458.956l-48.695-1.217c0-3.246 0-6.492 0-9.739 0-251.592-202.086-456.924-452.461-462.605v56.811h-20.29v-56.811c-246.318 5.275-445.969 204.115-452.461 450.432h54.782v20.29h-54.782c4.464 247.94 204.521 448.809 452.461 454.49v-56.811h20.29v56.811c49.507-1.217 97.796-9.739 144.056-26.376 36.116-12.579 70.203-30.028 102.26-51.13l-32.463-47.884 163.129-11.768-71.42 147.304-32.058-47.478c-35.304 23.536-73.449 42.608-113.217 56.811-54.782 19.478-111.999 29.217-170.84 29.217-282.027 0-511.302-229.273-511.302-511.302s229.273-511.302 511.302-511.302 511.302 229.273 511.302 511.302c0.406 3.652 0.406 7.305 0.406 10.957z" />
<glyph unicode="&#xe91c;" glyph-name="credit-cards" horiz-adv-x="1023" d="M511.5-63.505c-282.139 0-511.505 229.365-511.505 511.505s229.365 511.505 511.505 511.505 511.505-229.365 511.505-511.505-229.365-511.505-511.505-511.505zM511.5 910.79c-255.346 0-462.79-207.443-462.79-462.79s207.443-462.79 462.79-462.79c255.346 0 462.79 207.443 462.79 462.79s-207.85 462.79-462.79 462.79zM174.557 531.221v-247.634c0-33.694 27.199-60.894 60.894-60.894h548.041c33.694 0 60.894 27.199 60.894 60.894v247.634h-669.828zM251.687 429.732h162.383v-40.595h-162.383v40.595zM474.964 320.124h-223.276v40.595h223.276v-40.595zM709.2 318.094c-14.614 0-27.605 4.872-38.566 12.584-10.961-7.713-23.951-12.584-38.566-12.584-36.536 0-65.765 29.635-65.765 65.765s29.635 65.765 65.765 65.765c14.614 0 27.605-4.872 38.566-12.584 10.961 7.713 23.951 12.584 38.566 12.584 36.536 0 65.765-29.635 65.765-65.765s-29.229-65.765-65.765-65.765zM783.491 677.365h-548.041c-33.694 0-60.894-27.199-60.894-60.894v-44.656h669.828v44.656c0 33.694-27.199 60.894-60.894 60.894z" />
<glyph unicode="&#xe91d;" glyph-name="customer-service" horiz-adv-x="1023" d="M511.5-63.505c-282.139 0-511.505 229.365-511.505 511.505s229.365 511.505 511.505 511.505 511.505-229.365 511.505-511.505-229.365-511.505-511.505-511.505zM511.5 910.79c-255.346 0-462.79-207.443-462.79-462.79s207.443-462.79 462.79-462.79c255.346 0 462.79 207.443 462.79 462.79s-207.85 462.79-462.79 462.79zM389.713 571.817c0-28.025-22.719-50.745-50.745-50.745s-50.745 22.719-50.745 50.745c0 28.025 22.719 50.745 50.745 50.745s50.745-22.719 50.745-50.745zM515.559 309.975c0 23.546-19.080 42.625-42.625 42.625h-83.221v92.964c0 29.229-22.734 53.18-50.745 53.18s-50.745-23.951-50.745-53.18v-123.41c0-2.436 0-10.555 0-12.584 0-23.546 19.080-42.625 42.625-42.625h107.579v-79.161c0-21.11 17.456-38.566 38.566-38.566s38.566 17.456 38.566 38.566v109.608c0 2.029-0.406 4.060-0.406 6.090 0 2.436 0.406 4.465 0.406 6.495zM401.892 247.051h-115.698l-47.903 207.038c-0.812 3.247-2.842 5.683-5.277 7.713-2.842 1.624-6.090 2.436-9.337 1.624s-5.683-2.842-7.713-5.277c-1.624-2.842-2.436-6.090-1.624-9.337l49.527-212.721c0-0.406 0-0.406 0-0.812v-73.072c0-6.901 5.277-12.179 12.179-12.179s12.179 5.277 12.179 12.179v60.894h73.072v-60.894c0-6.901 5.277-12.179 12.179-12.179s12.179 5.277 12.179 12.179v60.894h16.238c6.901 0 12.179 5.277 12.179 12.179s-5.683 11.773-12.179 11.773zM676.724 748.408c-77.132 0-140.055-62.923-140.055-140.055s62.923-140.055 140.055-140.055 140.055 62.923 140.055 140.055-62.923 140.055-140.055 140.055zM746.954 592.114h-69.013c-6.901 0-12.179 5.277-12.179 12.179 0 0.812 0 1.218 0.406 2.029 0 0.812-0.406 1.218-0.406 2.029v85.251c0 6.901 5.277 12.179 12.179 12.179s12.179-5.277 12.179-12.179v-77.132h56.834c6.901 0 12.179-5.277 12.179-12.179s-5.683-12.179-12.179-12.179z" />
<glyph unicode="&#xe91e;" glyph-name="search" horiz-adv-x="1050" d="M1026.011-0.41l-329.644 329.644c54.707 66.864 87.906 151.963 87.906 245.013 0 212.749-173.005 385.754-385.754 385.754s-385.754-173.005-385.754-385.754c0-212.749 173.005-385.754 385.754-385.754 93.048 0 178.148 33.199 245.013 87.906l329.644-329.644c7.014-7.014 16.366-10.754 26.652-10.754s19.171 3.74 26.652 10.754c7.014 7.014 10.754 16.366 10.754 26.652s-4.208 19.171-11.222 26.185zM82.902 574.246c0 173.94 141.676 315.616 315.616 315.616s315.616-141.676 315.616-315.616-141.676-315.616-315.616-315.616-315.616 141.676-315.616 315.616z" />
<glyph unicode="&#xe91f;" glyph-name="no-food" horiz-adv-x="1023" d="M511.5 959.505c-282.139 0-511.505-229.365-511.505-511.505s229.365-511.505 511.505-511.505 511.505 229.365 511.505 511.505-229.365 511.505-511.505 511.505zM511.5-14.79c-255.346 0-462.79 207.443-462.79 462.79 0 116.916 43.843 224.088 115.291 305.685l147.362-147.362c-6.901-7.713-10.961-17.456-10.961-28.417v-12.179c0-22.734 17.456-41.002 39.784-42.625l19.080-215.969 0.406-2.029 5.277-60.487c0-12.179 10.555-22.328 23.139-22.328h64.953c7.308 0 13.802 3.654 17.456 9.337-9.337 12.179-15.832 27.199-18.268 43.438-18.268 9.337-30.447 28.011-30.447 49.121 0 20.703 11.773 39.377 29.635 48.714 2.436 24.357 14.209 45.873 31.665 61.299l20.298-20.298c0 0 0 0 0 0-1.624-1.624-3.247-2.842-4.872-4.465-0.406-0.406-0.406-0.812-0.812-0.812-1.218-1.218-2.436-2.842-3.654-4.060-0.406-0.406-0.812-0.812-1.218-1.624-0.812-1.218-2.029-2.842-2.842-4.060-0.406-0.812-0.812-1.218-1.218-2.029-0.812-1.218-1.624-2.842-2.436-4.060-0.406-0.812-0.812-1.624-1.218-2.029-0.812-1.218-1.218-2.842-1.624-4.060-0.406-0.812-0.406-1.624-0.812-2.436-0.406-1.624-0.812-2.842-1.218-4.465-0.406-0.812-0.406-1.624-0.812-2.436-0.406-1.624-0.406-3.247-0.812-4.872 0-0.812-0.406-1.624-0.406-2.029-0.406-2.436-0.406-4.872-0.406-7.308v-10.555l-10.149-2.842c-10.961-3.247-19.080-13.802-19.080-25.169 0-11.773 7.713-21.921 19.080-25.169l9.743-2.842 0.406-10.149c2.029-35.319 31.258-63.329 66.577-63.329h142.084c2.029 0 4.060 0 6.090 0.406l122.192-122.192c-80.786-72.26-187.551-116.103-304.467-116.103zM328.819 565.727v12.179c0 3.247 1.218 6.090 2.842 8.119l34.506-34.506h-23.139c-7.713 0-14.209 6.495-14.209 14.209zM388.901 592.114h189.581c7.713 0 14.209-6.495 14.209-14.209v-12.179c0-7.713-6.495-14.209-14.209-14.209h-148.986l-40.595 40.595zM848.85 131.76l-111.638 111.638c10.555 11.366 17.456 25.982 18.268 42.625l0.406 9.743 9.337 3.247c10.961 3.654 17.862 13.802 17.862 25.169s-7.308 21.516-18.268 25.169l-9.743 3.247v10.149c0 36.942-29.635 66.983-66.171 66.983h-137.619l-25.982 25.982c6.901 1.624 14.209 2.436 21.516 2.436h32.476l5.683 65.359c20.298 3.247 36.13 20.703 36.13 42.22v12.179c0 23.546-19.080 42.625-42.625 42.625h-109.202l14.209 82.003 70.636 19.892-5.683 19.486-83.221-23.546-16.645-97.835h-88.092l-165.224 165.224c82.815 77.538 194.047 125.035 316.24 125.035 255.346 0 462.79-207.443 462.79-462.79 0-122.192-47.497-233.425-125.44-316.24z" />
<glyph unicode="&#xe920;" glyph-name="no-smoking-sign" horiz-adv-x="1023" d="M783.491 662.751c-1.218-12.991-3.247-25.575-2.436-36.536 0.406-5.683 1.624-10.149 4.465-12.584 2.436-2.842 7.308-4.872 13.802-8.931 3.247-2.029 6.495-5.277 8.931-9.743s2.436-8.931 2.436-12.991c-0.406-7.713-2.842-14.209-5.277-20.298-5.683-12.179-12.991-22.734-21.516-32.071 2.842 12.584 6.901 24.764 9.743 36.13 1.218 5.683 2.436 11.366 2.029 16.238-0.406 2.436-0.406 4.060-1.218 5.277s-2.029 2.436-4.060 3.654c-2.029 1.218-4.465 2.842-7.713 4.872-2.842 2.029-6.090 4.465-8.931 8.119-2.436 3.247-4.465 7.713-4.872 11.366-0.812 4.060-0.812 7.713-0.406 11.366 0.812 6.901 2.842 13.397 5.683 19.486 1.218 2.842 2.842 5.683 4.465 8.525 1.218 2.436 3.247 5.277 4.872 8.119zM754.667 590.491c1.218-6.495 2.029-12.584 4.060-17.862 1.218-2.436 2.436-4.465 4.060-5.277 1.624-1.218 4.465-1.218 8.119-2.436 1.624-0.406 4.060-1.624 5.683-3.247s2.436-3.654 3.247-5.683c0.812-3.654 0.812-7.308 0.406-10.555-0.812-6.495-2.842-12.584-5.683-18.674-0.406 6.495-0.406 12.584-0.812 18.674-0.406 2.842-0.406 5.683-1.218 8.119s-1.624 2.842-4.060 3.654c-2.436 0.812-6.090 1.218-9.743 3.654s-5.277 6.495-5.683 10.149c-1.624 6.901-0.406 13.397 1.624 19.486zM511.5 959.505c-282.139 0-511.505-229.365-511.505-511.505s229.365-511.505 511.505-511.505 511.505 229.365 511.505 511.505-229.365 511.505-511.505 511.505zM974.29 448c0-114.073-41.408-218.405-110.014-298.784l-253.317 252.099h182.68c6.901 0 10.149 8.931 10.149 15.427v76.725c0 3.654-1.218 9.337-10.149 9.337h-284.169l-297.16 298.377c80.786 68.606 185.116 110.014 298.784 110.014 255.346-0.406 463.196-207.85 463.196-463.196zM48.71 448c0 126.658 51.15 241.544 133.56 325.171l269.961-270.366h-99.053v-101.489h200.542l282.546-282.139c-83.627-82.815-198.513-133.56-325.171-133.56-254.94-0.406-462.384 207.443-462.384 462.384zM198.914 493.467v-80.786c0-5.683 10.149-11.366 16.238-11.366h129.906v101.489h-129.906c-6.495 0-16.238-3.654-16.238-9.337z" />
<glyph unicode="&#xe921;" glyph-name="parking" horiz-adv-x="1023" d="M511.5-63.505c-282.139 0-511.505 229.365-511.505 511.505s229.365 511.505 511.505 511.505 511.505-229.365 511.505-511.505-229.365-511.505-511.505-511.505zM511.5 910.79c-255.346 0-462.79-207.443-462.79-462.79s207.443-462.79 462.79-462.79c255.346 0 462.79 207.443 462.79 462.79s-207.85 462.79-462.79 462.79zM480.647 397.661v-172.938h-101.083v490.801h191.205c36.942 0 69.418-6.901 97.024-20.298 28.011-13.397 49.527-32.476 64.547-57.646 15.020-24.764 22.734-53.18 22.734-84.845 0-47.903-16.645-86.062-49.527-113.668s-78.35-41.813-136.808-41.813h-88.092zM480.647 479.665h90.123c26.793 0 47.091 6.090 61.299 18.674s21.11 30.447 21.11 53.993c0 23.951-6.901 43.438-21.11 58.458s-33.694 22.328-58.458 22.734h-92.558v-153.857z" />
<glyph unicode="&#xe922;" glyph-name="pet-footprint" horiz-adv-x="1023" d="M511.5-63.505c-282.139 0-511.505 229.365-511.505 511.505s229.365 511.505 511.505 511.505 511.505-229.365 511.505-511.505-229.365-511.505-511.505-511.505zM511.5 910.79c-255.346 0-462.79-207.443-462.79-462.79s207.443-462.79 462.79-462.79c255.346 0 462.79 207.443 462.79 462.79s-207.85 462.79-462.79 462.79zM604.058 485.348c3.247-0.406 6.090-0.812 9.337-0.812 45.467 0 87.687 46.685 96.617 108.797 4.465 32.071-0.406 63.735-13.802 88.905s-34.101 41.002-58.051 44.249c-49.121 6.901-96.212-41.813-105.549-108.39-9.743-66.171 22.328-125.846 71.449-132.747zM836.264 492.656c-8.119 20.703-22.328 34.506-40.19 38.972s-37.348-0.812-54.398-14.614c-17.050-13.802-29.635-34.912-35.724-59.269-12.991-50.339 6.090-99.053 43.031-108.39 4.060-1.218 8.525-1.624 12.584-1.624 32.883 0 65.765 31.258 77.538 75.508 6.090 24.357 5.277 49.121-2.842 69.418zM344.246 512.141c17.456-17.862 37.754-27.605 58.458-27.605 3.247 0 6.090 0.406 9.337 0.812 23.951 3.247 44.656 19.080 58.051 44.249s18.268 56.428 13.802 88.905c-4.465 32.071-17.862 60.894-37.754 81.597s-44.249 30.040-67.795 26.793c-23.951-3.247-44.656-19.080-58.051-44.249s-18.268-56.428-13.802-88.905c4.465-32.476 17.862-61.299 37.754-81.597zM310.552 457.743c-12.991 50.339-53.586 83.627-90.123 74.29-17.862-4.465-32.071-18.674-40.19-38.972s-8.931-45.061-2.842-69.418c11.366-44.656 44.656-75.508 77.538-75.508 4.060 0 8.525 0.406 12.584 1.624 17.862 4.465 32.071 18.674 40.19 38.972 8.119 19.892 8.931 44.656 2.842 69.013zM636.129 385.483c-48.309 56.022-133.56 51.557-133.965 51.557-0.812 0-82.003 2.842-129.906-52.775-47.497-54.804-58.051-90.934-58.458-92.152-0.812-1.624-15.832-41.002-7.713-71.042 7.713-28.823 26.387-38.972 28.823-40.19 2.436-2.029 24.357-17.050 69.824 10.149 22.734 13.802 31.258 19.892 37.754 24.764s10.555 7.713 25.575 15.427c10.149 5.277 21.516 7.308 34.101 6.090v0c0 0 0 0 0 0 0.406 0 0.812 0 1.218 0v0c28.823 0 69.824-28.823 92.152-44.249 6.901-4.872 12.179-8.525 15.427-10.149 1.624-0.812 3.654-2.029 5.277-3.247 7.713-4.465 17.050-10.555 29.229-10.555 10.149 0 21.516 4.060 35.319 16.238 33.694 29.635 14.209 91.34 13.802 93.776 0 0.812-10.149 50.745-58.458 106.361z" />
<glyph unicode="&#xe923;" glyph-name="shopping-cart" horiz-adv-x="1023" d="M511.5-63.505c-282.139 0-511.505 229.365-511.505 511.505s229.365 511.505 511.505 511.505 511.505-229.365 511.505-511.505-229.365-511.505-511.505-511.505zM511.5 910.79c-255.346 0-462.79-207.443-462.79-462.79s207.443-462.79 462.79-462.79 462.79 207.443 462.79 462.79c0 255.346-207.85 462.79-462.79 462.79zM786.332 610.383c-11.366 15.020-30.853 14.209-31.258 14.209h-380.381l-17.050 63.329h-0.812v1.624h-121.787v-48.714h84.439l80.786-301.625c-17.050-12.179-28.011-32.071-28.011-54.398 0-36.942 30.040-66.983 66.983-66.983 28.011 0 51.557 17.050 61.705 41.408h152.234c10.149-24.357 34.101-41.408 61.705-41.408 36.942 0 66.983 30.040 66.983 66.983s-30.040 66.983-66.983 66.983c-28.823 0-53.586-18.268-62.923-43.843h-150.203c-8.525 23.139-29.229 40.19-54.398 43.438l-4.872 17.456h189.987c5.683 0 10.555 0 15.427 0 4.465 0 8.525 0 12.179 0 52.775 0 66.577 2.436 79.568 38.566 0.406 0.812 23.546 62.517 46.685 137.213v0c0.812 2.029 1.218 4.060 2.029 6.090 0 0 0 0.406 0 0.406v0c8.931 26.387 7.713 46.279-2.029 59.269z" />
<glyph unicode="&#xe924;" glyph-name="wifi-symbol-inside-a-circle" horiz-adv-x="1023" d="M511.5-63.505c-282.139 0-511.505 229.365-511.505 511.505s229.365 511.505 511.505 511.505 511.505-229.365 511.505-511.505-229.365-511.505-511.505-511.505zM511.5 910.79c-255.346 0-462.79-207.443-462.79-462.79s207.443-462.79 462.79-462.79c255.346 0 462.79 207.443 462.79 462.79s-207.85 462.79-462.79 462.79zM752.638 473.169c-133.56 133.56-350.341 133.965-483.088 1.218l-100.271 100.271c188.364 188.364 495.266 187.551 684.037-1.218l-100.677-100.271zM406.357 333.52l-106.361 105.954c116.509 116.509 304.873 117.727 420.165 2.436l-106.361-106.361c-56.428 56.834-149.392 56.022-207.443-2.029zM582.542 246.646c0-36.994-31.443-66.983-70.231-66.983s-70.231 29.989-70.231 66.983c0 36.994 31.443 66.983 70.231 66.983s70.231-29.989 70.231-66.983z" />
<glyph unicode="&#xe9ce;" glyph-name="eye" d="M512 768c-223.318 0-416.882-130.042-512-320 95.118-189.958 288.682-320 512-320 223.312 0 416.876 130.042 512 320-95.116 189.958-288.688 320-512 320zM764.45 598.296c60.162-38.374 111.142-89.774 149.434-150.296-38.292-60.522-89.274-111.922-149.436-150.296-75.594-48.218-162.89-73.704-252.448-73.704-89.56 0-176.858 25.486-252.452 73.704-60.158 38.372-111.138 89.772-149.432 150.296 38.292 60.524 89.274 111.924 149.434 150.296 3.918 2.5 7.876 4.922 11.86 7.3-9.96-27.328-15.41-56.822-15.41-87.596 0-141.382 114.616-256 256-256 141.382 0 256 114.618 256 256 0 30.774-5.452 60.268-15.408 87.598 3.978-2.378 7.938-4.802 11.858-7.302v0zM512 544c0-53.020-42.98-96-96-96s-96 42.98-96 96 42.98 96 96 96 96-42.982 96-96z" />
</font>
</defs>
</svg>
